<?xml version="1.0" encoding="UTF-8"?>
<svg width="200px" height="200px" viewBox="0 0 200 200" version="1.1" xmlns="http://www.w3.org/2000/svg" xmlns:xlink="http://www.w3.org/1999/xlink">
    <title>Icon/dark_200x200</title>
    <g id="Icon/dark_200x200" stroke="none" stroke-width="1" fill="none" fill-rule="evenodd">
        <g id="Group-7" transform="translate(12.000000, 6.000000)" fill="#0B181E">
            <path d="M175.978259,88.7504579 C175.978259,40.0559842 136.23142,0.479510526 87.4895425,0.742874789 C41.819383,0.994036842 3.16817255,37.2409316 0.192909804,82.8334053 C-1.92909804,115.446458 13.6174536,145.815879 40.9364497,163.136616 L40.904298,175.8563 L11.1912418,175.952774 L11.1912418,155.713089 L0.0568836601,155.713089 L0.0568836601,187.000247 L52.0534954,187.000247 L52.0856471,162.933774 C52.0930667,159.210879 50.1639686,155.769984 46.9240732,153.7193 C24.5267503,139.559932 11.1491974,115.278247 11.1491974,88.7504579 C11.1491974,46.5197211 45.3807948,12.1379842 87.5464261,11.8881421 C128.861276,11.6481947 163.429229,44.8227737 164.79691,86.1209316 C165.711995,113.660458 152.205835,139.094879 129.069025,153.7193 C125.829129,155.769984 123.900031,159.210879 123.907451,162.933774 L123.964335,187.000247 L175.938688,187.000247 L175.938688,155.713089 L164.79691,155.713089 L164.893365,175.8563 L135.083854,175.952774 L135.051702,163.126721 C160.671608,146.909247 175.978259,119.112458 175.978259,88.7504579" id="Fill-5"></path>
            <path d="M87.9888821,77.7264842 C81.9122233,77.7264842 76.9682912,82.6713789 76.9682912,88.7492211 C76.9682912,94.8295368 81.9122233,99.7744316 87.9888821,99.7744316 C94.0655409,99.7744316 99.0094729,94.8295368 99.0094729,88.7492211 C99.0094729,82.6713789 94.0655409,77.7264842 87.9888821,77.7264842" id="Fill-3"></path>
            <path d="M115.699881,86.6923526 C119.614961,90.3261947 123.955431,94.7417211 127.645449,98.9296684 C135.782286,108.168879 137.211797,114.006774 135.83917,116.379037 C134.528372,118.654826 128.609998,120.134089 118.368466,118.333247 C116.704001,118.043826 114.992545,117.665353 113.239044,117.232458 C114.878778,108.282668 115.717193,98.4967737 115.717193,88.7430368 C115.7073,88.0677211 115.7073,87.3750895 115.699881,86.6923526 M79.6999435,103.112668 C71.5977318,98.4324579 64.667818,93.5098263 58.9522468,88.7356158 C64.972022,83.7165105 72.015703,78.8285105 79.6999435,74.3907211 C87.3866573,69.9504579 95.135201,66.2918789 102.490506,63.5906158 C103.776571,70.9325105 104.565523,79.3999316 104.565523,88.7504579 C104.565523,98.1009842 103.776571,106.5783 102.490506,113.9103 C95.135201,111.209037 87.3866573,107.550458 79.6999435,103.112668 M67.2152167,116.007984 C51.7156559,121.420405 41.8995148,119.426616 40.1385945,116.379037 C38.8277971,114.103247 40.4922625,108.240616 47.1822756,100.265458 C48.2655383,98.9717211 49.4477292,97.6680895 50.7016429,96.3743526 C57.6315566,102.266668 65.6867775,107.879458 74.127818,112.760037 C74.3380403,112.881247 74.5556821,113.002458 74.7634311,113.123668 C71.7584899,114.313511 68.8796821,115.429142 67.2152167,116.007984 M74.6348246,58.1064579 C75.7527122,53.1294053 77.2316873,48.5629842 77.2316873,48.5629842 C80.8574024,38.1512474 85.247337,33.4858789 87.9876455,33.4858789 C91.7197082,33.4858789 96.5251409,40.5309316 100.00741,52.6470368 C91.6232533,55.6228789 82.8038128,59.7242474 74.127818,64.7334579 C73.7840429,64.9338263 73.4452141,65.1341947 73.1088586,65.3370368 C73.5985527,62.8584053 74.1129788,60.4465632 74.6348246,58.1064579 M126.752623,130.305879 C137.983436,130.305879 143.130171,126.0363 145.48466,121.952247 C150.020513,114.095826 146.835028,103.867142 136.007347,91.5655105 C130.009831,84.7554579 120.965329,75.8452474 114.824367,71.4148789 C114.428655,67.5955105 113.899389,63.8553 113.239044,60.2536158 C114.992545,59.8207211 116.713894,59.4496684 118.368466,59.1528263 C128.609998,57.3445632 134.528372,58.8312474 135.83917,61.1070368 C136.722103,62.6431947 136.046919,65.8268263 133.981795,69.8465632 C132.213455,73.2973526 130.613293,75.2095105 130.106286,75.7735105 C133.296717,78.6281421 136.182945,81.6114053 138.04032,83.6051947 C138.98261,82.6083 141.37667,79.8328263 143.894391,74.9448263 C147.896032,67.1601421 148.435191,60.6320895 145.492079,55.5338263 C142.51187,50.3638263 135.050218,44.8969842 116.439368,48.1770895 C114.581993,48.5060895 112.670208,48.9167211 110.723797,49.3990895 C106.165685,33.5501947 98.5358546,22.3345105 87.9975383,22.3345105 C81.8714154,22.3345105 73.2053135,26.2503526 66.6859514,44.9934579 C66.6216481,45.2012474 65.021486,50.1139842 63.7749919,55.6550368 C62.5037658,61.2925632 61.3215749,67.3456684 60.2531514,73.6733526 C56.8772298,76.0950895 53.694218,78.5786684 50.7337945,81.1043 C41.963818,72.0333 38.2737997,64.3475632 40.1385945,61.1144579 C41.2639017,59.1676684 44.7931618,57.5523526 50.1402259,58.3241421 C53.2193631,58.7669316 55.2844873,59.2567211 56.1698939,59.4892474 C56.9885239,55.2839842 58.0742599,51.2716684 58.8310599,48.6668789 C57.5351017,48.3378789 55.1484612,47.7911947 51.7304952,47.2915105 C42.342218,45.9408789 34.2053814,49.1022474 30.4931043,55.5412474 C25.2177631,64.6765632 31.111405,76.8990368 42.5598599,88.7677737 C41.1674468,90.2148789 39.8492298,91.6619842 38.6447801,93.1090895 C26.5038285,107.590037 27.510422,116.789668 30.4931043,121.952247 C33.797303,127.668932 40.6307618,130.602721 49.7296742,130.602721 C55.8805292,130.602721 63.0750756,129.259511 70.8978154,126.526089 C74.652137,125.215037 83.6076037,121.598511 87.8367801,119.869405 C91.9521893,121.766721 96.0280272,123.431511 100.00741,124.846458 C96.5251409,136.962563 91.7197082,144.007616 87.9876455,144.007616 C85.0296952,144.007616 81.4682834,139.681142 78.6785108,132.7103 C78.5672167,132.4283 78.3743069,131.8643 78.1640847,131.245879 C74.3875043,132.735037 70.4872638,133.939721 67.5936167,134.768405 C67.8434102,135.522879 68.1154625,136.319405 68.3331043,136.851247 C74.3875043,151.975353 82.3611095,155.151563 87.9876455,155.151563 C98.5358546,155.151563 106.165685,143.935879 110.716378,128.086984 C112.670208,128.569353 114.574574,128.979984 116.431949,129.308984 C120.347028,129.999142 123.762521,130.305879 126.752623,130.305879" id="Fill-1"></path>
        </g>
    </g>
</svg>