<?xml version="1.0" encoding="UTF-8"?>
<svg width="50px" height="50px" viewBox="0 0 50 50" version="1.1" xmlns="http://www.w3.org/2000/svg" xmlns:xlink="http://www.w3.org/1999/xlink">
    <title>Icon/yellow_50x50</title>
    <g id="Icon/yellow_50x50" stroke="none" stroke-width="1" fill="none" fill-rule="evenodd">
        <g id="Group-7" transform="translate(4.000000, 2.000000)" fill="#FFA729">
            <path d="M41.9948118,21.4828224 C41.9948118,9.82723026 32.5097706,0.354138158 20.8781863,0.417177476 C9.97962549,0.477296053 0.756041176,9.15341447 0.0460352941,20.0665066 C-0.460352941,27.8728224 3.24961961,35.1420987 9.76892549,39.2880197 L9.76125294,42.332625 L2.67063725,42.3557171 L2.67063725,37.5111118 L0.0135745098,37.5111118 L0.0135745098,45.0000592 L12.4218569,45.0000592 L12.4295294,39.2394671 C12.4313,38.3483487 11.9709471,37.5247303 11.1977902,37.033875 C5.85297451,33.6446645 2.66060392,27.8325592 2.66060392,21.4828224 C2.66060392,11.3744013 10.8295078,3.14473026 20.8917608,3.08492763 C30.7509863,3.02749342 39.0001569,10.9682171 39.3265353,20.8534145 C39.5449078,27.4453224 36.3218471,33.5333487 30.8005627,37.033875 C30.0274059,37.5247303 29.5670529,38.3483487 29.5688235,39.2394671 L29.582398,45.0000592 L41.9853686,45.0000592 L41.9853686,37.5111118 L39.3265353,37.5111118 L39.3495529,42.332625 L32.2359196,42.3557171 L32.2282471,39.2856513 C38.3420882,35.4038092 41.9948118,28.7503224 41.9948118,21.4828224" id="Fill-5"></path>
            <path d="M20.9973469,18.8441053 C19.5472351,18.8441053 18.3674331,20.0277237 18.3674331,21.4825263 C18.3674331,22.9379211 19.5472351,24.1215395 20.9973469,24.1215395 C22.4474586,24.1215395 23.6272606,22.9379211 23.6272606,21.4825263 C23.6272606,20.0277237 22.4474586,18.8441053 20.9973469,18.8441053" id="Fill-3"></path>
            <path d="M27.6101988,20.9901908 C28.5444792,21.8599934 29.5802733,22.9169013 30.4608459,23.9193355 C32.402591,26.1308487 32.7437243,27.5282171 32.4161655,28.0960461 C32.1033616,28.6407829 30.6910224,28.9948618 28.2470204,28.5638092 C27.8498184,28.4945329 27.4414027,28.4039408 27.0229537,28.3003224 C27.4142537,26.1580855 27.6143302,23.8157171 27.6143302,21.4810461 C27.6119694,21.3194013 27.6119694,21.1536118 27.6101988,20.9901908 M19.0193047,24.9205855 C17.0858224,23.8003224 15.4320929,22.6220329 14.0681498,21.4792697 C15.5046871,20.2778882 17.1855655,19.1078882 19.0193047,18.0456513 C20.8536341,16.9828224 22.7027184,16.1070987 24.4579616,15.4605197 C24.7648635,17.2178882 24.9531361,19.2446645 24.9531361,21.4828224 C24.9531361,23.7209803 24.7648635,25.750125 24.4579616,27.505125 C22.7027184,26.8585461 20.8536341,25.9828224 19.0193047,24.9205855 M16.0399949,28.0072303 C12.3412361,29.3027566 9.99874784,28.8255197 9.57852824,28.0960461 C9.26572431,27.5513092 9.66292627,26.1480197 11.2594067,24.2390724 C11.5179125,23.9294013 11.8000263,23.6173618 12.0992557,23.3076908 C13.7529851,24.7180855 15.6752537,26.0615724 17.6895929,27.2297961 C17.7397596,27.2588092 17.7916969,27.2878224 17.8412733,27.3168355 C17.1241851,27.6016382 16.4371969,27.8686776 16.0399949,28.0072303 M17.8105831,14.1478224 C18.0773518,12.9565066 18.430289,11.8634803 18.430289,11.8634803 C19.2955165,9.37130921 20.3431145,8.25459868 20.9970518,8.25459868 C21.8876576,8.25459868 23.0344086,9.94091447 23.8654047,12.8410461 C21.86464,13.5533487 19.7600008,14.5350592 17.6895929,15.7340724 C17.6075557,15.7820329 17.5266988,15.8299934 17.4464322,15.8785461 C17.563291,15.2852566 17.6860518,14.7079539 17.8105831,14.1478224 M30.2477851,31.4295987 C32.9278655,31.4295987 34.1560635,30.407625 34.7179302,29.4300592 C35.8003498,27.5495329 35.0401773,25.1011776 32.4562988,22.1566382 C31.0250733,20.5265724 28.8667263,18.3938092 27.4012694,17.3333487 C27.306838,16.4191382 27.1805361,15.523875 27.0229537,14.6617697 C27.4414027,14.5581513 27.8521792,14.4693355 28.2470204,14.3982829 C30.6910224,13.9654539 32.1033616,14.3213092 32.4161655,14.8660461 C32.6268655,15.2337434 32.465742,15.9957829 31.9729282,16.9579539 C31.550938,17.7839408 31.1690812,18.2416382 31.048091,18.3766382 C31.8094439,19.0599276 32.4982027,19.7740066 32.94144,20.2512434 C33.1663047,20.012625 33.7376145,19.3482829 34.3384341,18.1782829 C35.2933714,16.3149276 35.4220341,14.7523618 34.7197008,13.5320329 C34.0085145,12.2945329 32.2278929,10.9859803 27.7866675,11.7711118 C27.3434302,11.8498618 26.8872086,11.9481513 26.4227243,12.0636118 C25.3349929,8.26999342 23.514238,5.58538816 20.9994125,5.58538816 C19.5374969,5.58538816 17.4694498,6.52269079 15.9136929,11.0090724 C15.8983478,11.0588092 15.516491,12.2347303 15.2190322,13.5610461 C14.9156714,14.9104539 14.6335576,16.3593355 14.3785929,17.8739408 C13.5729753,18.4536118 12.8133929,19.0480855 12.1069282,19.652625 C10.0140929,17.481375 9.13352039,15.6417039 9.57852824,14.8678224 C9.84706745,14.4018355 10.6892773,14.0151908 11.9652812,14.1999276 C12.7000753,14.3059145 13.192889,14.4231513 13.4041792,14.4788092 C13.5995341,13.4722303 13.8586302,12.5118355 14.0392302,11.8883487 C13.7299675,11.8095987 13.1604282,11.6787434 12.3447773,11.5591382 C10.1043929,11.2358487 8.16264784,11.9925592 7.27676353,13.5338092 C6.01787529,15.7204539 7.42431255,18.6460461 10.1563302,21.4869671 C9.8240498,21.8333487 9.50947529,22.1797303 9.2220498,22.5261118 C6.32477725,25.9922961 6.56498706,28.1943355 7.27676353,29.4300592 C8.06526549,30.7984145 9.69597725,31.5006513 11.8673086,31.5006513 C13.3351263,31.5006513 15.0520067,31.1791382 16.9187969,30.5248618 C17.8147145,30.2110461 19.9518145,29.3453882 20.9610498,28.9315066 C21.9431361,29.3856513 22.9157792,29.7841382 23.8654047,30.1228224 C23.0344086,33.0229539 21.8876576,34.7092697 20.9970518,34.7092697 C20.2911773,34.7092697 19.4412949,33.6736776 18.7755537,32.005125 C18.7489949,31.937625 18.7029596,31.802625 18.6527929,31.6545987 C17.7515635,32.0110461 16.8208243,32.2994013 16.1302949,32.4977566 C16.1899047,32.6783487 16.2548263,32.8690066 16.3067635,32.9963092 C17.7515635,36.6164408 19.6543557,37.3767039 20.9970518,37.3767039 C23.514238,37.3767039 25.3349929,34.6920987 26.4209537,30.8984803 C26.8872086,31.0139408 27.3416596,31.1122303 27.7848969,31.1909803 C28.7191773,31.3561776 29.534238,31.4295987 30.2477851,31.4295987" id="Fill-1"></path>
        </g>
    </g>
</svg>