<?xml version="1.0" encoding="UTF-8"?>
<svg width="32px" height="32px" viewBox="0 0 32 32" version="1.1" xmlns="http://www.w3.org/2000/svg" xmlns:xlink="http://www.w3.org/1999/xlink">
    <title>Icon/yellow_32x32</title>
    <g id="Icon/yellow_32x32" stroke="none" stroke-width="1" fill="none" fill-rule="evenodd">
        <rect fill="#0B181E" x="0" y="0" width="32" height="32"></rect>
        <g id="Group-7" transform="translate(3.000000, 2.000000)" fill="#FFA729">
            <path d="M25.9179304,12.7730793 C25.9179304,5.72192773 20.0640493,-0.00890154415 12.8853865,0.0292346384 C6.15912367,0.065603893 0.466605797,5.31429702 0.0284115942,11.9162668 C-0.284115942,16.6387653 2.00556715,21.0363771 6.02908599,23.544488 L6.02435072,25.3863483 L1.64823671,25.4003181 L1.64823671,22.4695321 L0.00837777778,22.4695321 L0.00837777778,27.0000358 L7.66639517,27.0000358 L7.67113043,23.5151156 C7.67222319,22.9760258 7.38810725,22.4777707 6.91093816,22.1808236 C3.61227923,20.1304912 1.64204444,16.6144077 1.64204444,12.7730793 C1.64204444,6.65790228 6.68364541,1.67929137 12.8937643,1.64311324 C18.9785807,1.60836792 24.0697198,6.41217762 24.2711507,12.3923135 C24.4059237,16.3801454 22.4167478,20.0631498 19.0091778,22.1808236 C18.5320087,22.4777707 18.2478928,22.9760258 18.2489855,23.5151156 L18.2573633,27.0000358 L25.9121024,27.0000358 L25.9121024,22.4695321 L24.2711507,22.4695321 L24.2853565,25.3863483 L19.8950367,25.4003181 L19.8903014,23.5430552 C23.6635797,21.1947011 25.9179304,17.1696165 25.9179304,12.7730793" id="Fill-5"></path>
            <path d="M12.9589288,11.1767645 C12.0639636,11.1767645 11.3358254,11.8928047 11.3358254,12.7729002 C11.3358254,13.6533539 12.0639636,14.3693941 12.9589288,14.3693941 C13.853894,14.3693941 14.5820322,13.6533539 14.5820322,12.7729002 C14.5820322,11.8928047 13.853894,11.1767645 12.9589288,11.1767645" id="Fill-3"></path>
            <path d="M17.0401814,12.4750576 C17.6167911,13.0012522 18.256052,13.6406378 18.7995148,14.2470691 C19.9979013,15.5849432 20.2084385,16.4302933 20.006279,16.7738064 C19.8132259,17.1033497 18.9415728,17.3175528 17.4332085,17.0567838 C17.1880674,17.0148744 16.9360056,16.96007 16.6777515,16.8973851 C16.91925,15.6014203 17.0427312,14.1843842 17.0427312,12.7720047 C17.0412742,12.6742163 17.0412742,12.5739206 17.0401814,12.4750576 M11.7381409,14.852784 C10.5448539,14.1750711 9.52422203,13.4622546 8.68243749,12.7709301 C9.56902493,12.0441439 10.6064124,11.3363423 11.7381409,10.6937329 C12.8702336,10.0507653 14.0114327,9.52098863 15.0947157,9.12983508 C15.2841264,10.1929704 15.4003225,11.4190863 15.4003225,12.7730793 C15.4003225,14.1270724 15.2841264,15.3546211 15.0947157,16.4163236 C14.0114327,16.02517 12.8702336,15.4953934 11.7381409,14.852784 M9.89940077,16.7200765 C7.61663845,17.5038164 6.17092541,17.2151078 5.91157855,16.7738064 C5.71852541,16.4442631 5.96366647,15.5953309 6.94896599,14.4404967 C7.10850802,14.2531585 7.2826201,14.0643875 7.46729546,13.8770493 C8.48792734,14.7302798 9.67429353,15.5430339 10.9174829,16.2497609 C10.9484443,16.2673127 10.9804984,16.2848644 11.0110955,16.3024162 C10.5685302,16.47471 10.1445418,16.6362579 9.89940077,16.7200765 M10.9921544,8.33570742 C11.1567959,7.61501059 11.3746182,6.95377484 11.3746182,6.95377484 C11.9086104,5.44611433 12.5551563,4.77055061 12.9587467,4.77055061 C13.5084017,4.77055061 14.2161418,5.79070198 14.7290075,7.54516174 C13.4941959,7.9760754 12.1952761,8.5699697 10.9174829,9.29532312 C10.866852,9.32433726 10.8169496,9.35335139 10.7674114,9.38272373 C10.8395331,9.02380811 10.9152974,8.67456388 10.9921544,8.33570742 M18.6680201,18.790468 C20.3220848,18.790468 21.0800916,18.1722161 21.4268587,17.5808292 C22.0948955,16.4431885 21.6257399,14.9620347 20.0310481,13.18071 C19.1477389,12.1945876 17.8156723,10.904354 16.9112365,10.2628192 C16.8529563,9.70975961 16.7750066,9.1681624 16.6777515,8.64662434 C16.9360056,8.58393947 17.1895244,8.53020959 17.4332085,8.48722569 C18.9415728,8.22538206 19.8132259,8.44065979 20.006279,8.77020307 C20.1363167,8.99264478 20.0368761,9.45364717 19.7327264,10.0357209 C19.4722868,10.5354088 19.2366162,10.8122968 19.1619447,10.8939662 C19.6318288,11.3073281 20.05691,11.7393164 20.3304626,12.0280249 C20.4692423,11.8836707 20.8218375,11.4817711 21.1926452,10.7739695 C21.7820037,9.64671655 21.8614104,8.70142882 21.4279515,7.96318023 C20.9890288,7.21454387 19.8900829,6.4229236 17.1490926,6.89789576 C16.8755399,6.94553625 16.5939737,7.00499732 16.307308,7.07484617 C15.635993,4.77986379 14.5122781,3.15578854 12.9602037,3.15578854 C12.0579534,3.15578854 10.7816172,3.7228179 9.82145101,6.43689337 C9.81198048,6.4669821 9.57630995,7.17836575 9.39272734,7.98073199 C9.20550222,8.79706801 9.03139014,9.67358149 8.87403362,10.5898551 C8.37683072,10.9405321 7.90803942,11.3001641 7.47203072,11.6658855 C6.18039594,10.352369 5.63693314,9.23944404 5.91157855,8.77127766 C6.07731285,8.48937488 6.59709932,8.25547079 7.38461043,8.36722895 C7.83810319,8.43134661 8.14225295,8.50227005 8.27265488,8.53594078 C8.39322203,7.92700211 8.55312831,7.34600298 8.66458918,6.9688192 C8.47372155,6.92117871 8.12221913,6.84201668 7.61882396,6.76966044 C6.23612638,6.57408367 5.0377399,7.03186227 4.49099884,7.96425483 C3.71405101,9.28708454 4.58206164,11.0569469 6.26818048,12.7755867 C6.06310705,12.9851333 5.86896116,13.1946798 5.69157082,13.4042263 C3.90346164,15.5011246 4.05171188,16.8332674 4.49099884,17.5808292 C4.97763845,18.4086276 5.98406454,18.8334519 7.32414473,18.8334519 C8.23003749,18.8334519 9.28964425,18.6389497 10.4417708,18.2431396 C10.9947042,18.053294 12.3136578,17.5296067 12.9365273,17.2792255 C13.5426414,17.5539643 14.1429273,17.7950323 14.7290075,17.9999223 C14.2161418,19.7543821 13.5084017,20.7745334 12.9587467,20.7745334 C12.5231022,20.7745334 11.9985805,20.148043 11.5877051,19.1386376 C11.5713138,19.0978029 11.5429022,19.0161335 11.5119409,18.9265837 C10.9557293,19.1422196 10.3813051,19.3166626 9.95513121,19.4366594 C9.99192058,19.5459101 10.0319882,19.6612503 10.0640423,19.7382631 C10.9557293,21.9282931 12.1300752,22.3882209 12.9587467,22.3882209 C14.5122781,22.3882209 15.635993,20.7641457 16.3062153,18.4691633 C16.5939737,18.5390121 16.8744471,18.5984732 17.1479998,18.6461137 C17.7246095,18.7460513 18.2276404,18.790468 18.6680201,18.790468" id="Fill-1"></path>
        </g>
    </g>
</svg>