<?xml version="1.0" encoding="UTF-8"?>
<svg width="512px" height="512px" viewBox="0 0 512 512" version="1.1" xmlns="http://www.w3.org/2000/svg" xmlns:xlink="http://www.w3.org/1999/xlink">
    <title>Icon/yellow_512x512</title>
    <g id="Icon/yellow_512x512" stroke="none" stroke-width="1" fill="none" fill-rule="evenodd">
        <g id="Group-7" transform="translate(21.000000, 6.000000)" fill="#FFA729">
            <path d="M469.941941,235.917198 C469.941941,105.528005 363.799814,-0.445919708 233.636846,0.259290785 C111.676761,0.931827422 8.46046078,97.9901384 0.515156863,220.073106 C-5.15156863,307.401078 36.3647908,388.721278 109.318928,435.101015 L109.233069,469.160514 L29.8857026,469.418842 L29.8857026,415.223039 L0.151905229,415.223039 L0.151905229,499.000662 L139.006493,499.000662 L139.092353,434.557865 C139.112167,424.58907 133.960598,415.375386 125.308605,409.884269 C65.4975719,371.969728 29.7734248,306.950661 29.7734248,235.917198 C29.7734248,122.835953 121.18735,30.7719756 233.788752,30.1029734 C344.11818,29.4604663 436.430327,118.292037 440.082657,228.876116 C442.52635,302.618706 406.458765,370.724456 344.672964,409.884269 C336.020971,415.375386 330.869402,424.58907 330.889216,434.557865 L331.041121,499.000662 L469.836268,499.000662 L469.836268,415.223039 L440.082657,415.223039 L440.340235,469.160514 L360.735291,469.418842 L360.649431,435.07452 C429.066225,391.648991 469.941941,317.217527 469.941941,235.917198" id="Fill-5"></path>
            <path d="M234.97031,206.398304 C218.742869,206.398304 205.540323,219.639249 205.540323,235.913887 C205.540323,252.195148 218.742869,265.436093 234.97031,265.436093 C251.197751,265.436093 264.400297,252.195148 264.400297,235.913887 C264.400297,219.639249 251.197751,206.398304 234.97031,206.398304" id="Fill-3"></path>
            <path d="M308.971273,230.40621 C319.426315,240.136549 331.017344,251.960004 340.871371,263.174071 C362.600423,287.913905 366.417867,303.546036 362.752328,309.898245 C359.251903,315.992127 343.447155,319.95315 316.097609,315.131035 C311.65273,314.356052 307.082364,313.342613 302.39972,312.183451 C306.778554,288.218599 309.017505,262.014909 309.017505,235.897327 C308.991086,234.089034 308.991086,232.234374 308.971273,230.40621 M212.835076,274.37489 C191.198488,261.84269 172.692469,248.661359 157.429295,235.877456 C173.504831,222.437797 192.314661,209.3492 212.835076,197.466131 C233.362096,185.576438 254.05423,175.779861 273.696237,168.546689 C277.130616,188.20608 279.237475,210.879294 279.237475,235.917198 C279.237475,260.955103 277.130616,283.654812 273.696237,303.287708 C254.05423,296.054536 233.362096,286.257959 212.835076,274.37489 M179.495181,308.904677 C138.104308,323.397517 111.89075,318.058747 107.188292,309.898245 C103.687867,303.804364 108.132746,288.105995 125.998122,266.750914 C128.890926,263.286675 132.047913,259.795941 135.396433,256.331702 C153.902452,272.109556 175.413554,287.138922 197.954969,300.207649 C198.516358,300.532214 199.09756,300.85678 199.652344,301.181345 C191.627786,304.367385 183.94006,307.354712 179.495181,308.904677 M199.308907,153.861759 C202.294175,140.534705 206.24371,128.307199 206.24371,128.307199 C215.926018,100.427691 227.649139,87.9352339 234.967008,87.9352339 C244.933312,87.9352339 257.766001,106.799772 267.065243,139.243067 C244.675733,147.211479 221.123818,158.193714 197.954969,171.606877 C197.036933,172.143403 196.132106,172.67993 195.233884,173.22308 C196.54159,166.586048 197.915341,160.127859 199.308907,153.861759 M338.487119,347.190151 C368.478495,347.190151 382.222616,335.757499 388.510171,324.821631 C400.622962,303.784492 392.116269,276.395144 363.201439,243.455065 C347.185344,225.219787 323.032413,201.360916 306.633253,189.497718 C305.576521,179.270595 304.163142,169.255433 302.39972,159.611204 C307.082364,158.452041 311.679148,157.458474 316.097609,156.66362 C343.447155,151.821633 359.251903,155.802528 362.752328,161.896409 C365.110161,166.009779 363.307112,174.53459 357.792292,185.298239 C353.070021,194.538418 348.796861,199.658603 347.442923,201.168826 C355.962825,208.812673 363.670364,216.800957 368.6304,222.139727 C371.146743,219.470342 377.539972,212.038456 384.263429,198.949858 C394.949632,178.104809 396.389429,160.624643 388.529985,146.973023 C380.571472,133.129314 360.645469,118.490751 310.946041,127.273889 C305.986005,128.154852 300.880668,129.2544 295.682867,130.546038 C283.510635,88.1074523 263.135521,58.0752144 234.993426,58.0752144 C218.633893,58.0752144 195.491462,68.5606649 178.081802,118.749078 C177.910083,119.305476 173.636923,132.460312 170.308217,147.297589 C166.913465,162.393193 163.756478,178.601593 160.903302,195.545233 C151.888057,202.029918 143.387969,208.680197 135.482292,215.443081 C112.062469,191.153664 102.208442,170.573567 107.188292,161.916281 C110.193374,156.703362 119.618103,152.378031 133.897194,154.444652 C142.11989,155.630309 147.63471,156.941819 149.999148,157.564454 C152.185263,146.304021 155.084671,135.560243 157.105671,128.585398 C153.644874,127.704435 147.271459,126.240578 138.143936,124.902574 C113.072969,121.285988 91.3439163,129.751184 81.430449,146.992895 C67.3428902,171.45453 83.0815928,204.182648 113.654171,235.963565 C109.935795,239.838479 106.415557,243.713393 103.199129,247.588306 C70.7772693,286.36394 73.4653314,310.997793 81.430449,324.821631 C90.2541614,340.129196 108.502603,347.985005 132.800835,347.985005 C149.226413,347.985005 168.439122,344.38829 189.329393,337.069008 C199.355139,333.558402 223.270305,323.87443 234.564129,319.244405 C245.554142,324.324847 256.438482,328.782654 267.065243,332.571459 C257.766001,365.014754 244.933312,383.879292 234.967008,383.879292 C227.067936,383.879292 217.557348,372.294293 210.107387,353.628469 C209.810181,352.873357 209.295024,351.363135 208.733635,349.707189 C198.648449,353.694707 188.233034,356.92049 180.505681,359.139457 C181.172743,361.159712 181.899246,363.29257 182.480449,364.716684 C198.648449,405.214501 219.941599,413.71944 234.967008,413.71944 C263.135521,413.71944 283.510635,383.687202 295.663054,341.248616 C300.880668,342.540254 305.966191,343.639802 310.926227,344.520765 C321.381269,346.368801 330.502188,347.190151 338.487119,347.190151" id="Fill-1"></path>
        </g>
    </g>
</svg>